<?xml version="1.0" standalone="no"?><!DOCTYPE svg PUBLIC "-//W3C//DTD SVG 1.1//EN" "http://www.w3.org/Graphics/SVG/1.1/DTD/svg11.dtd"><svg t="1754275878145" class="icon" viewBox="0 0 1040 1024" version="1.1" xmlns="http://www.w3.org/2000/svg" p-id="8706" data-spm-anchor-id="a313x.search_index.0.i1.1fa53a81CncQO4" xmlns:xlink="http://www.w3.org/1999/xlink" width="16.25" height="16"><path d="M512 64c60.5 0 119.2 11.8 174.4 35.2 53.3 22.6 101.3 54.9 142.4 96 41.2 41.2 73.5 89.1 96 142.4C948.2 392.8 960 451.5 960 512s-11.8 119.2-35.2 174.4c-22.6 53.3-54.9 101.3-96 142.4-41.2 41.2-89.1 73.5-142.4 96C631.2 948.2 572.5 960 512 960s-119.2-11.8-174.4-35.2c-53.3-22.6-101.3-54.9-142.4-96-41.2-41.2-73.5-89.1-96-142.4C75.8 631.2 64 572.5 64 512s11.8-119.2 35.2-174.4c22.6-53.3 54.9-101.3 96-142.4 41.2-41.2 89.1-73.5 142.4-96C392.8 75.8 451.5 64 512 64m0-64C229.2 0 0 229.2 0 512s229.2 512 512 512 512-229.2 512-512S794.8 0 512 0z" p-id="8707" fill="#e6e6e6"></path><path d="M716 304H308c-2.2 0-4 1.8-4 4v408c0 2.2 1.8 4 4 4h408c2.2 0 4-1.8 4-4V308c0-2.2-1.8-4-4-4z" fill="#FF5151" p-id="8708" data-spm-anchor-id="a313x.search_index.0.i2.1fa53a81CncQO4" class="selected"></path></svg>